{"title":"Ishq Hothon Se (Jo Hum Chahein) - H.264 - 720p [HD] ~~~AbhinavRo","uid":6949213,"size":50462472,"categoryP":"video","categoryS":"music_videos","magnet":"?xt=urn:btih:4453638551481a266f9f335843cad9a4c7ad03f2&amp;dn=Ishq+Hothon+Se+%28Jo+Hum+Chahein%29+-+H.264+-+720p+%5BHD%5D+%7E%7E%7EAbhinavRo&amp;tr=udp%3A%2F%2Ftracker.openbittorrent.com%3A80&amp;tr=udp%3A%2F%2Fopen.demonii.com%3A1337&amp;tr=udp%3A%2F%2Ftracker.coppersurfer.tk%3A6969&amp;tr=udp%3A%2F%2Fexodus.desync.com%3A6969","seeders":1,"leechers":0,"uploader":"AbhiHKRG","files":6,"time":1326346376,"description":"SCREEN ::\n &lt;a href=&quot;\nhttp://i.minus.com/ibnB36j55UmrlG.png&quot; rel=&quot;nofollow&quot; target=&quot;_NEW&quot;&gt;\nhttp://i.minus.com/ibnB36j55UmrlG.png&lt;/a&gt;\n &lt;a href=&quot;\nhttp://i.minus.com/iliE7XFXkxXGQ.png&quot; rel=&quot;nofollow&quot; target=&quot;_NEW&quot;&gt;\nhttp://i.minus.com/iliE7XFXkxXGQ.png&lt;/a&gt;\n &lt;a href=&quot;\nhttp://i.minus.com/ikEYqcyZRNifM.png&quot; rel=&quot;nofollow&quot; target=&quot;_NEW&quot;&gt;\nhttp://i.minus.com/ikEYqcyZRNifM.png&lt;/a&gt;\n &lt;a href=&quot;\nhttp://i.minus.com/iCsLbCzKjGh5E.png&quot; rel=&quot;nofollow&quot; target=&quot;_NEW&quot;&gt;\nhttp://i.minus.com/iCsLbCzKjGh5E.png&lt;/a&gt;\n &lt;a href=&quot;\nhttp://i.minus.com/ibrmuh8faxSNVy.png&quot; rel=&quot;nofollow&quot; target=&quot;_NEW&quot;&gt;\nhttp://i.minus.com/ibrmuh8faxSNVy.png&lt;/a&gt;\n &lt;a href=&quot;\nhttp://i.minus.com/im1TSGU5t3uIY.png&quot; rel=&quot;nofollow&quot; target=&quot;_NEW&quot;&gt;\nhttp://i.minus.com/im1TSGU5t3uIY.png&lt;/a&gt;\n\n\nGeneral ::\nFormat                           : AVI\nFormat/Info                      : Audio Video Interleave\nFile size                        : 48.1 MiB\nDuration                         : 2mn 59s\nOverall bit rate                 : 2 245 Kbps\n\n\nVideo Info ::\nID                               : 0\nFormat                           : AVC\nFormat/Info                      : Advanced Video Codec\nFormat profile                   : &lt;a class=&quot;__cf_email__&quot; href=&quot;/cdn-cgi/l/email-protection&quot; data-cfemail=&quot;521a3b353a121e677c63&quot;&gt;[email&amp;#160;protected]&lt;/a&gt;&lt;script cf-hash='f9e31' type=&quot;text/javascript&quot;&gt;\n/* &lt;![CDATA[ */!function(){try{var t=&quot;currentScript&quot;in document?document.currentScript:function(){for(var t=document.getElementsByTagName(&quot;script&quot;),e=t.length;e--;)if(t[e].getAttribute(&quot;cf-hash&quot;))return t[e]}();if(t&amp;&amp;t.previousSibling){var e,r,n,i,c=t.previousSibling,a=c.getAttribute(&quot;data-cfemail&quot;);if(a){for(e=&quot;&quot;,r=parseInt(a.substr(0,2),16),n=2;a.length-n;n+=2)i=parseInt(a.substr(n,2),16)^r,e+=String.fromCharCode(i);e=document.createTextNode(e),c.parentNode.replaceChild(e,c)}}}catch(u){}}();/* ]]&gt; */&lt;/script&gt;\nFormat settings, CABAC           : Yes\nFormat settings, ReFrames        : 2 frames\nCodec ID                         : H264\nDuration                         : 10s 0ms\nBit rate                         : 1 913 Kbps\nWidth                            : 1 280 pixels\nHeight                           : 544 pixels\nDisplay aspect ratio             : 2.35:1\nFrame rate                       : 30.000 fps\nColor space                      : YUV\nChroma subsampling               : 4:2:0\nBit depth                        : 8 bits\nScan type                        : Progressive\nBits/(Pixel*Frame)               : 0.092\nStream size                      : 41.0 MiB (85%)\n\n\nAudio Info ::\nID                               : 1\nFormat                           : MPEG Audio\nFormat version                   : Version 1\nFormat profile                   : Layer 3\nCodec ID                         : 55\nCodec ID/Hint                    : MP3\nDuration                         : 2mn 59s\nBit rate mode                    : Constant\nBit rate                         : 320 Kbps\nChannel(s)                       : 2 channels\nSampling rate                    : 44.1 KHz\nCompression mode                 : Lossy\nStream size                      : 6.86 MiB (14%)","torrent":{"xt":"urn:btih:4453638551481a266f9f335843cad9a4c7ad03f2","amp;dn":"Ishq+Hothon+Se+%28Jo+Hum+Chahein%29+-+H.264+-+720p+%5BHD%5D+%7E%7E%7EAbhinavRo","amp;tr":["udp%3A%2F%2Ftracker.openbittorrent.com%3A80","udp%3A%2F%2Fopen.demonii.com%3A1337","udp%3A%2F%2Ftracker.coppersurfer.tk%3A6969","udp%3A%2F%2Fexodus.desync.com%3A6969"],"infoHash":"4453638551481a266f9f335843cad9a4c7ad03f2","infoHashBuffer":{"type":"Buffer","data":[68,83,99,133,81,72,26,38,111,159,51,88,67,202,217,164,199,173,3,242]},"announce":[],"urlList":[]}}